/* XPM */
static char *result[] = {
/* columns rows colors chars-per-pixel */
"64 64 6 1 ",
"  c #232323",
". c #762525",
"X c #A43333",
"o c #63AB3F",
"O c #F6FF00",
"+ c white",
/* pixels */
"oooooooooooooooooooooooooooooooooooooooooooooooooooooooooooooooo",
"oooooooooooooooooooooooooooooooooooooooooooooooooooooooooooooooo",
"oooooooooooooooooooooooooooooooooooooooooooooooooooooooooooooooo",
"oooooooooooooooooooooooooooooooooooooooooooooooooooooooooooooooo",
"oooooooooooooooooooooooooooooooooooooooooooooooooooooooooooooooo",
"oooooooooooooooooooooooooooooooooooooooooooooooooooooooooooooooo",
"oooooooooooooooooooooooooooooooooooooooooooooooooooooooooooooooo",
"oooooooooooooooooooooooooooooooooooooooooooooooooooooooooooooooo",
"oooooooooooooooooooooooooooooooooooooooooooooooooooooooooooooooo",
"oooooooooooooooooooooooooooooooooooooooooooooooooooooooooooooooo",
"oooooooooooooooooooooooooooooooooooooooooooooooooooooooooooooooo",
"oooooooooooooooooooooooooooooooooooooooooooooooooooooooooooooooo",
"oooooooooooooooooooooooooooooooooooooooooooooooooooooooooooooooo",
"oooooooooooooooooooooooooooooooooooooooooooooooooooooooooooooooo",
"oooooooooooooooooooooooooooooooooooooooooooooooooooooooooooooooo",
"oooooooooooooooooooooooooooooooooooooooooooooooooooooooooooooooo",
"oooooooooooooooooooooooooooooooooooooooooooooooooooooooooooooooo",
"oooooooooooooooooooooooooooooooooooooooooooooooooooooooooooooooo",
"oooooooooooooooooooooooooooooooooooooooooooooooooooooooooooooooo",
"oooooooooooooooooooooooooooooooooooooooooooooooooooooooooooooooo",
"oooooooooooooooooooo                        oooooooooooooooooooo",
"oooooooooooooooooooo                        oooooooooooooooooooo",
"oooooooooooooooooooo                        oooooooooooooooooooo",
"oooooooooooooooooooo                        oooooooooooooooooooo",
"oooooooooooooooooooo    ................    oooooooooooooooooooo",
"oooooooooooooooooooo    ................    oooooooooooooooooooo",
"oooooooooooooooooooo    ................    oooooooooooooooooooo",
"oooooooooooooooooooo    ................    oooooooooooooooooooo",
"oooooooooooooooo        ........++++....    oooooooooooooooooooo",
"oooooooooooooooo        ........++++....    oooooooooooooooooooo",
"oooooooooooooooo        ........++++....    oooooooooooooooooooo",
"oooooooooooooooo        ........++++....    oooooooooooooooooooo",
"oooooooooooooooo    OOOO................        oooooooooooooooo",
"oooooooooooooooo    OOOO................        oooooooooooooooo",
"oooooooooooooooo    OOOO................        oooooooooooooooo",
"oooooooooooooooo    OOOO................        oooooooooooooooo",
"oooooooooooooooo            ........XXXXXXXX    oooooooooooooooo",
"oooooooooooooooo            ........XXXXXXXX    oooooooooooooooo",
"oooooooooooooooo            ........XXXXXXXX    oooooooooooooooo",
"oooooooooooooooo            ........XXXXXXXX    oooooooooooooooo",
"oooooooooooooooooooooooo    ........XXXXXXXX    oooooooooooooooo",
"oooooooooooooooooooooooo    ........XXXXXXXX    oooooooooooooooo",
"oooooooooooooooooooooooo    ........XXXXXXXX    oooooooooooooooo",
"oooooooooooooooooooooooo    ........XXXXXXXX    oooooooooooooooo",
"oooooooooooooooooooooooo    ........XXXXXXXX    oooooooooooooooo",
"oooooooooooooooooooooooo    ........XXXXXXXX    oooooooooooooooo",
"oooooooooooooooooooooooo    ........XXXXXXXX    oooooooooooooooo",
"oooooooooooooooooooooooo    ........XXXXXXXX    oooooooooooooooo",
"oooooooooooooooooooooooooooooooooooooooooooooooooooooooooooooooo",
"oooooooooooooooooooooooooooooooooooooooooooooooooooooooooooooooo",
"oooooooooooooooooooooooooooooooooooooooooooooooooooooooooooooooo",
"oooooooooooooooooooooooooooooooooooooooooooooooooooooooooooooooo",
"oooooooooooooooooooooooooooooooooooooooooooooooooooooooooooooooo",
"oooooooooooooooooooooooooooooooooooooooooooooooooooooooooooooooo",
"oooooooooooooooooooooooooooooooooooooooooooooooooooooooooooooooo",
"oooooooooooooooooooooooooooooooooooooooooooooooooooooooooooooooo",
"oooooooooooooooooooooooooooooooooooooooooooooooooooooooooooooooo",
"oooooooooooooooooooooooooooooooooooooooooooooooooooooooooooooooo",
"oooooooooooooooooooooooooooooooooooooooooooooooooooooooooooooooo",
"oooooooooooooooooooooooooooooooooooooooooooooooooooooooooooooooo",
"oooooooooooooooooooooooooooooooooooooooooooooooooooooooooooooooo",
"oooooooooooooooooooooooooooooooooooooooooooooooooooooooooooooooo",
"oooooooooooooooooooooooooooooooooooooooooooooooooooooooooooooooo",
"oooooooooooooooooooooooooooooooooooooooooooooooooooooooooooooooo"
};
