/* XPM */
static char *result[] = {
/* columns rows colors chars-per-pixel */
"64 64 15 1 ",
"  c #3B1F0E",
". c #232323",
"X c #343434",
"o c #492712",
"O c #623418",
"+ c #7B411E",
"@ c gray50",
"# c #8E502C",
"$ c #63AB3F",
"% c #F6FF00",
"& c #EBD77E",
"* c #6CC7D6",
"= c #A2A2A2",
"- c #FFEA8D",
"; c #9CD9E4",
/* pixels */
"$$$$$$$$$$$$$$$$$$$$$$$$$.....................$$$$$$$$$$$$$$$$$$",
"$$$$$$$$$$$$$$$$$$$$$$$$$.....................$$$$$$$$$$$$$$$$$$",
"$$$$$$$$$$$$$$$$$$$$$$$$$.....................$$$$$$$$$$$$$$$$$$",
"$$$$$$$$$$$$$$$$$$$$$$$$$.....................$$$$$$$$$$$$$$$$$$",
"$$$$........................===============..........$$$$$$$$$$$",
"$$$$........................===============..........$$$$$$$$$$$",
"$$$$........................===============..........$$$$$$$$$$$",
"$$$$...---------------------====XXXXXXX====-------...$$$$$$$$$$$",
"$$$$...---------------------====XXXXXXX====-------...$$$$$$$$$$$",
"$$$$...---------------------====XXXXXXX====-------...$$$$$$$$$$$",
"$$$$...---------------------====XXXXXXX====-------...$$$$$$$$$$$",
"$$$$...---------------------===============-------...$$$$$$$$$$$",
"$$$$...---------------------===============-------...$$$$$$$$$$$",
"$$$$...---------------------===============-------...$$$$$$$$$$$",
"$$$$...---------------------@@@@@@@@@@@@@@@-------...$$$$$$$$$$$",
"$$$$...---------------------@@@@@@@@@@@@@@@-------...$$$$$$$$$$$",
"$$$$...---------------------@@@@@@@@@@@@@@@-------...$$$$$$$$$$$",
"$$$$...---------------------@@@@@@@@@@@@@@@-------...$$$$$$$$$$$",
"$$$$...---------------------@@@@@@@@@@@@@@@-------...$$$$$$$$$$$",
"$$$$...---------------------@@@@@@@@@@@@@@@-------...$$$$$$$$$$$",
"$$$$...---------------------@@@@@@@@@@@@@@@-------...$$$$$$$$$$$",
"$$$$...-------------------------------------------...$$$$$$$$$$$",
"$$$$...-------------------------------------------...$$$$$$$$$$$",
"$$$$...-------------------------------------------...$$$$$$$$$$$",
"$$$$...-------------------------------------------...$$$$$$$$$$$",
"$$$$...-------------------------------------------...$$$$$$$$$$$",
"$$$$...-------------------------------------------...$$$$$$$$$$$",
"$$$$...-------------------------------------------...$$$$$$$$$$$",
"$$$$...-------------------------------------------...$$$$$$$$$$$",
"$$$$...-------------------------------------------...$$$$$$$$$$$",
"$$$$...-------------------------------------------...$$$$$$$$$$$",
"$$$$...-------------------------------------------...$$$$$$$$$$$",
"$$$$...&&&&&&&&&&&&&&&&&&&&&&&&&&&&&&&&&&&&&&&&&&&...$$$$$$$$$$$",
"$$$$...&&&&&&&&&&&&&&&&&&&&&&&&&&&&&&&&&&&&&&&&&&&...$$$$$$$$$$$",
"$$$$...&&&&&&&&&&&&&&&&&&&&&&&&&&&&&&&&&&&&&&&&&&&...$$$$$$$$$$$",
"$$$$...&&&&&&&&&&&&&&&&&&&&&&&&&&&&&&&&&&&&&&&&&&&...$$$$$$$$$$$",
"$$$$.......OOOOOOOOOOOOOOOOOOOOOOOOOOOOOOOOOOO.......$$$$$$$$$$$",
"$$$$.......OOOOOOOOOOOOOOOOOOOOOOOOOOOOOOOOOOO.......$$$$$$$$$$$",
"$$$$.......OOOOOOOOOOOOOOOOOOOOOOOOOOOOOOOOOOO.......$$$$$$$$$$$",
"$$$$$$$....+++++++++++++++++++++++++++++++++++....$$$$$$$$$$$$$$",
"$$$$$$$....+++++++++++++++++++++++++++++++++++....$$$$$$$$$$$$$$",
"$$$$$$$....+++++++++++++++++++++++++++++++++++....$$$$$$$$$$$$$$",
"$$$$$$$....+++++++++++++++++++++++++++++++++++....$$$$$$$$$$$$$$",
"$$$$$$$....+++              ++++***********+++....$$$$$$$$$$$$$$",
"$$$$$$$....+++              ++++***********+++....$$$$$$$$$$$$$$",
"$$$$$$$....+++              ++++***********+++....$$$$$$$$$$$$$$",
"$$$$$$$....+++oooooooooooooo++++;;;;;;;;;;;+++....$$$$$$$$$$$$$$",
"$$$$$$$....+++oooooooooooooo++++;;;;;;;;;;;+++....$$$$$$$$$$$$$$",
"$$$$$$$....+++oooooooooooooo++++;;;;;;;;;;;+++....$$$$$$$$$$$$$$",
"$$$$$$$....+++oooooooooooooo++++;;;;;;;;;;;+++....$$$$$$$$$$$$$$",
"$$$$$$$....+++oooo%%%ooooooo++++;;;;;;;;;;;+++....$$$$$$$$$$$$$$",
"$$$$$$$....+++oooo%%%ooooooo++++;;;;;;;;;;;+++....$$$$$$$$$$$$$$",
"$$$$$$$....+++oooo%%%ooooooo++++;;;;;;;;;;;+++....$$$$$$$$$$$$$$",
"$$$$$$$....+++oooooooooooooo++++###########+++....$$$$$$$$$$$$$$",
"$$$$$$$....+++oooooooooooooo++++###########+++....$$$$$$$$$$$$$$",
"$$$$$$$....+++oooooooooooooo++++###########+++....$$$$$$$$$$$$$$",
"$$$$$$$....+++oooooooooooooo++++###########+++....$$$$$$$$$$$$$$",
"$$$$$$$....+++oooooooooooooo++++++++++++++++++....$$$$$$$$$$$$$$",
"$$$$$$$....+++oooooooooooooo++++++++++++++++++....$$$$$$$$$$$$$$",
"$$$$$$$....+++oooooooooooooo++++++++++++++++++....$$$$$$$$$$$$$$",
"$$$$$$$....+++$$$$$$$$$$$$$$++++++++++++++++++....$$$$$$$$$$$$$$",
"$$$$$$$....+++$$$$$$$$$$$$$$++++++++++++++++++....$$$$$$$$$$$$$$",
"$$$$$$$....+++$$$$$$$$$$$$$$++++++++++++++++++....$$$$$$$$$$$$$$",
"$$$$$$$....+++$$$$$$$$$$$$$$++++++++++++++++++....$$$$$$$$$$$$$$"
};
