/* XPM */
static char *result[] = {
/* columns rows colors chars-per-pixel */
"64 64 6 1 ",
"  c #232323",
". c #C14900",
"X c #FF6000",
"o c #63AB3F",
"O c #D2D2D2",
"+ c white",
/* pixels */
"oooooooooooooooooooooooooooooooooooooooooooooooooooooooooooooooo",
"oooooooooooooooooooooooooooooooooooooooooooooooooooooooooooooooo",
"oooooooooooooooooooooooooooooooooooooooooooooooooooooooooooooooo",
"oooooooooooooooooooooooooooooooooooooooooooooooooooooooooooooooo",
"oooooooooooooooooooooooooooooooooooooooooooooooooooooooooooooooo",
"oooooooooooooooooooooooooooooooooooooooooooooooooooooooooooooooo",
"oooooooooooooooooooooooooooooooooooooooooooooooooooooooooooooooo",
"oooooooooooooooooooooooooooooooooooooooooooooooooooooooooooooooo",
"oooooooooooooooooooooooooooooooooooooooooooooooooooooooooooooooo",
"oooooooooooooooooooooooooooooooooooooooooooooooooooooooooooooooo",
"oooooooooooooooooooooooooooooooooooooooooooooooooooooooooooooooo",
"oooooooooooooooooooooooooooooooooooooooooooooooooooooooooooooooo",
"oooooooooooooooo            oooo            oooooooooooooooooooo",
"oooooooooooooooo            oooo            oooooooooooooooooooo",
"oooooooooooooooo            oooo            oooooooooooooooooooo",
"oooooooooooooooo            oooo            oooooooooooooooooooo",
"oooooooooooooooo    XXXX    oooo    XXXX    oooooooooooooooooooo",
"oooooooooooooooo    XXXX    oooo    XXXX    oooooooooooooooooooo",
"oooooooooooooooo    XXXX    oooo    XXXX    oooooooooooooooooooo",
"oooooooooooooooo    XXXX    oooo    XXXX    oooooooooooooooooooo",
"oooooooooooo        XXXX            XXXX                oooooooo",
"oooooooooooo        XXXX            XXXX                oooooooo",
"oooooooooooo        XXXX            XXXX                oooooooo",
"oooooooooooo        XXXX            XXXX                oooooooo",
"oooooooooooo    XXXXXXXXXXXXXXXXXXXXXXXX    ++++++++    oooooooo",
"oooooooooooo    XXXXXXXXXXXXXXXXXXXXXXXX    ++++++++    oooooooo",
"oooooooooooo    XXXXXXXXXXXXXXXXXXXXXXXX    ++++++++    oooooooo",
"oooooooooooo    XXXXXXXXXXXXXXXXXXXXXXXX    ++++++++    oooooooo",
"oooooooo        XXXX    XXXX    XXXXXXXX    XXXXXXXX    oooooooo",
"oooooooo        XXXX    XXXX    XXXXXXXX    XXXXXXXX    oooooooo",
"oooooooo        XXXX    XXXX    XXXXXXXX    XXXXXXXX    oooooooo",
"oooooooo        XXXX    XXXX    XXXXXXXX    XXXXXXXX    oooooooo",
"oooooooo    XXXXXXXXXXXXXXXXXXXXXXXXXXXX    XXXXXXXX    oooooooo",
"oooooooo    XXXXXXXXXXXXXXXXXXXXXXXXXXXX    XXXXXXXX    oooooooo",
"oooooooo    XXXXXXXXXXXXXXXXXXXXXXXXXXXX    XXXXXXXX    oooooooo",
"oooooooo    XXXXXXXXXXXXXXXXXXXXXXXXXXXX    XXXXXXXX    oooooooo",
"oooooooo                OOOOOOOO........    XXXXXXXX    oooooooo",
"oooooooo                OOOOOOOO........    XXXXXXXX    oooooooo",
"oooooooo                OOOOOOOO........    XXXXXXXX    oooooooo",
"oooooooo                OOOOOOOO........    XXXXXXXX    oooooooo",
"oooooooooooooooooooo    ++++++++XXXXXXXXXXXXXXXX        oooooooo",
"oooooooooooooooooooo    ++++++++XXXXXXXXXXXXXXXX        oooooooo",
"oooooooooooooooooooo    ++++++++XXXXXXXXXXXXXXXX        oooooooo",
"oooooooooooooooooooo    ++++++++XXXXXXXXXXXXXXXX        oooooooo",
"oooooooooooooooooooo    ++++++++XXXXXXXXXXXXXXXX    oooooooooooo",
"oooooooooooooooooooo    ++++++++XXXXXXXXXXXXXXXX    oooooooooooo",
"oooooooooooooooooooo    ++++++++XXXXXXXXXXXXXXXX    oooooooooooo",
"oooooooooooooooooooo    ++++++++XXXXXXXXXXXXXXXX    oooooooooooo",
"oooooooooooooooooooooooooooooooooooooooooooooooooooooooooooooooo",
"oooooooooooooooooooooooooooooooooooooooooooooooooooooooooooooooo",
"oooooooooooooooooooooooooooooooooooooooooooooooooooooooooooooooo",
"oooooooooooooooooooooooooooooooooooooooooooooooooooooooooooooooo",
"oooooooooooooooooooooooooooooooooooooooooooooooooooooooooooooooo",
"oooooooooooooooooooooooooooooooooooooooooooooooooooooooooooooooo",
"oooooooooooooooooooooooooooooooooooooooooooooooooooooooooooooooo",
"oooooooooooooooooooooooooooooooooooooooooooooooooooooooooooooooo",
"oooooooooooooooooooooooooooooooooooooooooooooooooooooooooooooooo",
"oooooooooooooooooooooooooooooooooooooooooooooooooooooooooooooooo",
"oooooooooooooooooooooooooooooooooooooooooooooooooooooooooooooooo",
"oooooooooooooooooooooooooooooooooooooooooooooooooooooooooooooooo",
"oooooooooooooooooooooooooooooooooooooooooooooooooooooooooooooooo",
"oooooooooooooooooooooooooooooooooooooooooooooooooooooooooooooooo",
"oooooooooooooooooooooooooooooooooooooooooooooooooooooooooooooooo",
"oooooooooooooooooooooooooooooooooooooooooooooooooooooooooooooooo"
};
