/* XPM */
static char *result[] = {
/* columns rows colors chars-per-pixel */
"64 64 4 1 ",
"  c #232323",
". c gray50",
"X c #63AB3F",
"o c #A2A2A2",
/* pixels */
"XXXXXXXXXXXXXXXXXXXXXXXXXXXXXXXXXXXXXXXXXXXXXXXXXXXXXXXXXXXXXXXX",
"XXXXXXXXXXXXXXXXXXXXXXXXXXXXXXXXXXXXXXXXXXXXXXXXXXXXXXXXXXXXXXXX",
"XXXXXXXXXXXXXXXXXXXXXXXXXXXXXXXXXXXXXXXXXXXXXXXXXXXXXXXXXXXXXXXX",
"XXXXXXXXXXXXXXXXXXXXXXXXXXXXXXXXXXXXXXXXXXXXXXXXXXXXXXXXXXXXXXXX",
"XXXXXXXXXXXXXXXXXXXXXXXXXXXXXXXXXXXXXXXXXXXXXXXXXXXXXXXXXXXXXXXX",
"XXXXXXXXXXXXXXXXXXXXXXXXXXXXXXXXXXXXXXXXXXXXXXXXXXXXXXXXXXXXXXXX",
"XXXXXXXXXXXXXXXXXXXXXXXXXXXXXXXXXXXXXXXXXXXXXXXXXXXXXXXXXXXXXXXX",
"XXXXXXXXXXXXXXXXXXXXXXXXXXXXXXXXXXXXXXXXXXXXXXXXXXXXXXXXXXXXXXXX",
"XXXXXXXXXXXXXXXXXXXXXXXXXXXXXXXXXXXXXXXXXXXXXXXXXXXXXXXXXXXXXXXX",
"XXXXXXXXXXXXXXXXXXXXXXXXXXXXXXXXXXXXXXXXXXXXXXXXXXXXXXXXXXXXXXXX",
"XXXXXXXXXXXXXXXXXXXXXXXXXXXXXXXXXXXXXXXXXXXXXXXXXXXXXXXXXXXXXXXX",
"XXXXXXXXXXXXXXXXXXXXXXXXXXXXXXXXXXXXXXXXXXXXXXXXXXXXXXXXXXXXXXXX",
"XXXXXXXXXXXXXXXXXXXXXXXXXXXXXXXXXXXXXXXXXXXXXXXXXXXXXXXXXXXXXXXX",
"XXXXXXXXXXXXXXXXXXXXXXXXXXXXXXXXXXXXXXXXXXXXXXXXXXXXXXXXXXXXXXXX",
"XXXXXXXXXXXXXXXXXXXXXXXXXXXXXXXXXXXXXXXXXXXXXXXXXXXXXXXXXXXXXXXX",
"XXXXXXXXXXXXXXXXXXXXXXXXXXXXXXXXXXXXXXXXXXXXXXXXXXXXXXXXXXXXXXXX",
"XXXXXXXXXXXXXXXXXXXXXXXXXXXXXXXXXXXXXXXXXXXXXXXXXXXXXXXXXXXXXXXX",
"XXXXXXXXXXXXXXXXXXXXXXXXXXXXXXXXXXXXXXXXXXXXXXXXXXXXXXXXXXXXXXXX",
"XXXXXXXXXXXXXXXXXXXXXXXXXXXXXXXXXXXXXXXXXXXXXXXXXXXXXXXXXXXXXXXX",
"XXXXXXXXXXXXXXXXXXXXXXXXXXXXXXXXXXXXXXXXXXXXXXXXXXXXXXXXXXXXXXXX",
"XXXXXXXXXXXXXXXXXXXXXXXXXXXXXXXXXXXXXXXXXXXXXXXXXXXXXXXXXXXXXXXX",
"XXXXXXXXXXXXXXXXXXXXXXXXXXXXXXXXXXXXXXXXXXXXXXXXXXXXXXXXXXXXXXXX",
"XXXXXXXXXXXXXXXXXXXXXXXXXXXXXXXXXXXXXXXXXXXXXXXXXXXXXXXXXXXXXXXX",
"XXXXXXXXXXXXXXXXXXXXXXXXXXXXXXXXXXXXXXXXXXXXXXXXXXXXXXXXXXXXXXXX",
"XXXXXXXXXXXXXXXX                                XXXXXXXXXXXXXXXX",
"XXXXXXXXXXXXXXXX                                XXXXXXXXXXXXXXXX",
"XXXXXXXXXXXXXXXX                                XXXXXXXXXXXXXXXX",
"XXXXXXXXXXXXXXXX                                XXXXXXXXXXXXXXXX",
"XXXXXXXXXXXX        oooooooooooooooooooooooo        XXXXXXXXXXXX",
"XXXXXXXXXXXX        oooooooooooooooooooooooo        XXXXXXXXXXXX",
"XXXXXXXXXXXX        oooooooooooooooooooooooo        XXXXXXXXXXXX",
"XXXXXXXXXXXX        oooooooooooooooooooooooo        XXXXXXXXXXXX",
"XXXXXXXXXXXX    oooooooooooooooooooooooooooooooo    XXXXXXXXXXXX",
"XXXXXXXXXXXX    oooooooooooooooooooooooooooooooo    XXXXXXXXXXXX",
"XXXXXXXXXXXX    oooooooooooooooooooooooooooooooo    XXXXXXXXXXXX",
"XXXXXXXXXXXX    oooooooooooooooooooooooooooooooo    XXXXXXXXXXXX",
"XXXXXXXXXXXX    oooooooooooooooooooooooooooooooo    XXXXXXXXXXXX",
"XXXXXXXXXXXX    oooooooooooooooooooooooooooooooo    XXXXXXXXXXXX",
"XXXXXXXXXXXX    oooooooooooooooooooooooooooooooo    XXXXXXXXXXXX",
"XXXXXXXXXXXX    oooooooooooooooooooooooooooooooo    XXXXXXXXXXXX",
"XXXXXXXXXXXX    ....oooooooooooooooooooooooo....    XXXXXXXXXXXX",
"XXXXXXXXXXXX    ....oooooooooooooooooooooooo....    XXXXXXXXXXXX",
"XXXXXXXXXXXX    ....oooooooooooooooooooooooo....    XXXXXXXXXXXX",
"XXXXXXXXXXXX    ....oooooooooooooooooooooooo....    XXXXXXXXXXXX",
"XXXXXXXXXXXX    ................................    XXXXXXXXXXXX",
"XXXXXXXXXXXX    ................................    XXXXXXXXXXXX",
"XXXXXXXXXXXX    ................................    XXXXXXXXXXXX",
"XXXXXXXXXXXX    ................................    XXXXXXXXXXXX",
"XXXXXXXXXXXX        ........................        XXXXXXXXXXXX",
"XXXXXXXXXXXX        ........................        XXXXXXXXXXXX",
"XXXXXXXXXXXX        ........................        XXXXXXXXXXXX",
"XXXXXXXXXXXX        ........................        XXXXXXXXXXXX",
"XXXXXXXXXXXXXXXXXXXXXXXXXXXXXXXXXXXXXXXXXXXXXXXXXXXXXXXXXXXXXXXX",
"XXXXXXXXXXXXXXXXXXXXXXXXXXXXXXXXXXXXXXXXXXXXXXXXXXXXXXXXXXXXXXXX",
"XXXXXXXXXXXXXXXXXXXXXXXXXXXXXXXXXXXXXXXXXXXXXXXXXXXXXXXXXXXXXXXX",
"XXXXXXXXXXXXXXXXXXXXXXXXXXXXXXXXXXXXXXXXXXXXXXXXXXXXXXXXXXXXXXXX",
"XXXXXXXXXXXXXXXXXXXXXXXXXXXXXXXXXXXXXXXXXXXXXXXXXXXXXXXXXXXXXXXX",
"XXXXXXXXXXXXXXXXXXXXXXXXXXXXXXXXXXXXXXXXXXXXXXXXXXXXXXXXXXXXXXXX",
"XXXXXXXXXXXXXXXXXXXXXXXXXXXXXXXXXXXXXXXXXXXXXXXXXXXXXXXXXXXXXXXX",
"XXXXXXXXXXXXXXXXXXXXXXXXXXXXXXXXXXXXXXXXXXXXXXXXXXXXXXXXXXXXXXXX",
"XXXXXXXXXXXXXXXXXXXXXXXXXXXXXXXXXXXXXXXXXXXXXXXXXXXXXXXXXXXXXXXX",
"XXXXXXXXXXXXXXXXXXXXXXXXXXXXXXXXXXXXXXXXXXXXXXXXXXXXXXXXXXXXXXXX",
"XXXXXXXXXXXXXXXXXXXXXXXXXXXXXXXXXXXXXXXXXXXXXXXXXXXXXXXXXXXXXXXX",
"XXXXXXXXXXXXXXXXXXXXXXXXXXXXXXXXXXXXXXXXXXXXXXXXXXXXXXXXXXXXXXXX"
};
